<svg width="17" height="16" viewBox="0 0 17 16" fill="none" xmlns="http://www.w3.org/2000/svg">
<rect x="0.496094" width="16" height="16" rx="6" fill="#562583"/>
<path d="M9.72949 11.4479V12.3164C9.72918 12.4408 9.67954 12.5601 9.59144 12.6479C9.50335 12.7358 9.384 12.7852 9.25957 12.7852H7.73262C7.60819 12.7852 7.48884 12.7358 7.40075 12.6479C7.31265 12.5601 7.26301 12.4408 7.2627 12.3164V11.4479C8.06693 11.6913 8.92525 11.6913 9.72949 11.4479Z" fill="white"/>
<path d="M11.4727 4.44726C11.0822 4.05516 10.6183 3.74391 10.1074 3.53133C9.59648 3.31874 9.04868 3.209 8.49533 3.20838C7.94198 3.20777 7.39393 3.31628 6.88257 3.52772C6.37121 3.73916 5.90656 4.04937 5.51523 4.4406C5.1239 4.83183 4.81356 5.2964 4.60199 5.8077C4.39041 6.31901 4.28175 6.86703 4.28223 7.42038C4.2827 7.97373 4.3923 8.52156 4.60475 9.03251C4.8172 9.54345 5.12833 10.0075 5.52033 10.398C5.91078 10.7901 6.37473 11.1014 6.88562 11.314C7.39651 11.5266 7.94431 11.6363 8.49767 11.6369C9.05102 11.6375 9.59906 11.529 10.1104 11.3176C10.6218 11.1061 11.0864 10.7959 11.4778 10.4047C11.8691 10.0135 12.1794 9.54891 12.391 9.03761C12.6026 8.5263 12.7112 7.97828 12.7108 7.42493C12.7103 6.87158 12.6007 6.32375 12.3882 5.8128C12.1758 5.30186 11.8647 4.83782 11.4727 4.44726ZM8.4965 10.8586C6.59845 10.8586 5.059 9.32031 5.059 7.42266C5.059 5.525 6.59845 3.98672 8.4965 3.98672C10.3945 3.98672 11.934 5.525 11.934 7.42266C11.934 9.32031 10.3945 10.8586 8.4965 10.8586Z" fill="white"/>
<path d="M6.2449 5.7625H6.82869C6.88049 5.7625 6.93017 5.78308 6.96679 5.8197C7.00342 5.85633 7.024 5.90601 7.024 5.95781V8.76836C7.024 8.85155 6.99095 8.93133 6.93213 8.99016C6.8733 9.04898 6.79352 9.08203 6.71033 9.08203C6.66914 9.08203 6.62835 9.07392 6.59029 9.05815C6.55224 9.04239 6.51766 9.01928 6.48853 8.99016C6.4594 8.96103 6.4363 8.92645 6.42053 8.88839C6.40477 8.85034 6.39666 8.80955 6.39666 8.76836V6.4873C6.39666 6.45249 6.38283 6.41911 6.35821 6.39449C6.3336 6.36988 6.30022 6.35605 6.26541 6.35605H6.24412C6.1913 6.35608 6.13943 6.34201 6.09387 6.3153C6.04831 6.28858 6.01071 6.25019 5.98495 6.20408C5.95919 6.15797 5.9462 6.10582 5.94733 6.05302C5.94846 6.00022 5.96367 5.94867 5.99138 5.90371C6.01802 5.86044 6.05532 5.82474 6.09971 5.80002C6.1441 5.77529 6.19409 5.76237 6.2449 5.7625ZM10.2654 5.7625H10.8494C10.9012 5.7625 10.9509 5.78308 10.9875 5.8197C11.0241 5.85633 11.0447 5.90601 11.0447 5.95781V8.76836C11.0447 8.85155 11.0117 8.93133 10.9528 8.99016C10.894 9.04898 10.8142 9.08203 10.731 9.08203C10.6478 9.08203 10.5681 9.04898 10.5092 8.99016C10.4504 8.93133 10.4174 8.85155 10.4174 8.76836V6.4873C10.4174 6.47007 10.414 6.453 10.4074 6.43708C10.4008 6.42115 10.3911 6.40668 10.3789 6.39449C10.3667 6.38231 10.3523 6.37264 10.3363 6.36604C10.3204 6.35945 10.3033 6.35605 10.2861 6.35605H10.2648C10.212 6.35608 10.1601 6.34201 10.1146 6.3153C10.069 6.28858 10.0314 6.25019 10.0057 6.20408C9.97989 6.15797 9.96691 6.10582 9.96804 6.05302C9.96917 6.00022 9.98437 5.94867 10.0121 5.90371C10.0387 5.86047 10.076 5.82479 10.1203 5.80006C10.1647 5.77534 10.2146 5.76241 10.2654 5.7625Z" fill="white"/>
<path d="M8.49648 7.08808C8.77985 7.08808 9.00957 6.85837 9.00957 6.575C9.00957 6.29163 8.77985 6.06191 8.49648 6.06191C8.21311 6.06191 7.9834 6.29163 7.9834 6.575C7.9834 6.85837 8.21311 7.08808 8.49648 7.08808Z" fill="white"/>
<path d="M8.49648 8.7834C8.77985 8.7834 9.00957 8.55368 9.00957 8.27031C9.00957 7.98694 8.77985 7.75723 8.49648 7.75723C8.21311 7.75723 7.9834 7.98694 7.9834 8.27031C7.9834 8.55368 8.21311 8.7834 8.49648 8.7834Z" fill="white"/>
</svg>
