<svg width="17" height="16" viewBox="0 0 17 16" fill="none" xmlns="http://www.w3.org/2000/svg">
<rect x="0.240234" width="16" height="16" rx="6" fill="#9A5FA3"/>
<path fill-rule="evenodd" clip-rule="evenodd" d="M9.96726 5.47C9.96726 5.02666 10.3273 4.66666 10.7706 4.66666C11.2139 4.66666 11.5739 5.02666 11.5739 5.47C11.5739 5.91333 11.2139 6.27333 10.7706 6.27333C10.3273 6.27333 9.96726 5.91333 9.96726 5.47ZM8.68389 8.91976L9.64723 7.67676L9.63389 7.68343C9.68723 7.6101 9.69723 7.51676 9.66056 7.43343C9.62423 7.3501 9.54389 7.29343 9.45756 7.28676C9.36723 7.27676 9.27756 7.31676 9.22389 7.3901L8.41756 8.43343L7.49389 7.70676C7.43723 7.66343 7.37056 7.64643 7.30389 7.65343C7.23756 7.66343 7.17756 7.69976 7.13723 7.7531L6.15089 9.03676L6.13056 9.06676C6.07389 9.1731 6.10056 9.30976 6.20056 9.38343C6.24723 9.41343 6.29723 9.43343 6.35389 9.43343C6.43089 9.43676 6.50389 9.39643 6.55056 9.33343L7.38723 8.25643L8.33723 8.9701L8.36723 8.98976C8.47389 9.04643 8.60723 9.0201 8.68389 8.91976ZM9.39056 5.2601C9.37723 5.34343 9.37056 5.42676 9.37056 5.5101C9.37056 6.2601 9.97723 6.86643 10.7239 6.86643C10.8072 6.86643 10.8872 6.85676 10.9706 6.84343V9.5331C10.9706 10.6634 10.3039 11.3334 9.17056 11.3334H6.70756C5.57389 11.3334 4.90723 10.6634 4.90723 9.5331V7.06676C4.90723 5.93343 5.57389 5.2601 6.70756 5.2601H9.39056Z" fill="white"/>
</svg>
