<svg width="29" height="28" viewBox="0 0 29 28" fill="none" xmlns="http://www.w3.org/2000/svg">
<path d="M18.9398 23.6687C19.3336 23.6687 19.5961 23.3187 19.4648 22.9687C19.3773 22.6625 19.2898 22.3125 19.1586 22.0062C18.5898 20.4312 17.3648 18.8562 15.9648 17.9812C15.2648 17.5437 14.4336 17.2375 13.5586 17.325C12.3773 17.4562 11.2398 18.5062 10.4961 19.3812C9.62106 20.3875 9.05231 21.6562 8.65856 22.9687C8.57106 23.3187 8.83356 23.6687 9.18356 23.6687H18.9398Z" fill="#13C9E7"/>
<path d="M19.9023 4.55C20.1648 4.50625 20.4273 4.76875 20.3398 5.03125C19.6398 7 18.5898 8.44375 17.146 9.40625C16.446 9.8875 15.8335 10.4563 15.4398 11.2C15.3085 11.4625 15.1773 11.7688 15.1335 12.075C15.0898 12.3375 15.1335 12.6438 14.9585 12.8625C14.7398 13.125 14.346 13.2563 14.0398 13.2125C13.646 13.1688 13.2085 12.95 13.121 12.5563C13.0335 12.2063 13.0335 11.9 12.9023 11.5938C12.5523 10.675 11.8523 9.975 11.0648 9.45C9.62101 8.4875 8.571 7.04375 7.871 5.075C7.7835 4.8125 8.00225 4.55 8.3085 4.59375C12.071 5.25 16.0085 5.25 19.9023 4.55Z" fill="#13C9E7"/>
<path d="M24.3648 24.9375H24.1023C24.1023 24.5438 24.0586 24.1938 24.0148 23.8C23.7961 21.7438 23.1398 19.8188 22.0898 18.1125C21.3898 17.0188 20.6023 16.1 19.6836 15.3562C19.2461 15.0062 18.2836 14.2625 18.3273 13.8688C18.3273 13.7812 18.4586 13.5625 18.9398 13.2125C21.0398 11.8125 22.4836 9.84375 23.4461 7.175C23.9273 5.8625 24.1461 4.4625 24.1898 3.01875H24.3648C24.9773 3.01875 25.4586 2.5375 25.4586 1.925C25.4586 1.3125 24.9773 0.875 24.3648 0.875H3.71484C3.10234 0.875 2.62109 1.35625 2.62109 1.96875C2.62109 2.58125 3.10234 3.0625 3.71484 3.0625H3.88984C3.93359 4.50625 4.19609 5.90625 4.63359 7.21875C5.55234 9.8875 7.03984 11.8562 9.13984 13.2562C9.62109 13.5625 9.75234 13.825 9.75234 13.9125C9.75234 14.2625 8.83359 15.0063 8.39609 15.4C7.47734 16.1438 6.64609 17.0625 5.98984 18.1562C4.93984 19.8625 4.28359 21.7437 4.06484 23.8438C3.97734 24.1938 3.97734 24.5875 3.93359 24.9375H3.71484C3.10234 24.9375 2.62109 25.4188 2.62109 26.0312C2.62109 26.6437 3.10234 27.125 3.71484 27.125H24.3648C24.9773 27.125 25.4586 26.6437 25.4586 26.0312C25.4586 25.4188 24.9773 24.9375 24.3648 24.9375ZM5.90234 24.0188C6.07734 22.225 6.64609 20.6063 7.56484 19.1187C8.13359 18.2 8.83359 17.4125 9.57734 16.8C10.5398 16.0563 11.6773 15.0938 11.6336 13.7812C11.5898 12.9937 11.1086 12.2937 10.1898 11.6375C8.43984 10.5 7.21484 8.79375 6.42734 6.5625C6.03359 5.425 5.81484 4.24375 5.77109 3.01875H22.3086C22.2648 4.24375 22.0461 5.425 21.6523 6.5625C20.8648 8.8375 19.6398 10.5 17.8898 11.6375C16.9711 12.25 16.4898 12.9937 16.4461 13.7812C16.4023 15.0938 17.5836 16.0563 18.5023 16.8C19.2461 17.4125 19.9461 18.2 20.5148 19.1187C21.4336 20.5625 22.0023 22.225 22.1773 24.0188C22.2211 24.325 22.2211 24.6313 22.2211 24.9375H5.85859C5.85859 24.6313 5.85859 24.325 5.90234 24.0188Z" fill="#562583"/>
<path d="M14.0834 14.8313C14.3975 14.8313 14.6521 14.5766 14.6521 14.2625C14.6521 13.9484 14.3975 13.6938 14.0834 13.6938C13.7693 13.6938 13.5146 13.9484 13.5146 14.2625C13.5146 14.5766 13.7693 14.8313 14.0834 14.8313Z" fill="#13C9E7"/>
<path d="M14.2148 16.1875C14.4565 16.1875 14.6523 15.9916 14.6523 15.75C14.6523 15.5084 14.4565 15.3125 14.2148 15.3125C13.9732 15.3125 13.7773 15.5084 13.7773 15.75C13.7773 15.9916 13.9732 16.1875 14.2148 16.1875Z" fill="#13C9E7"/>
</svg>
