<svg width="34" height="28" viewBox="0 0 34 28" fill="none" xmlns="http://www.w3.org/2000/svg">
<path d="M26.5242 0H16.7349C15.8075 0 14.8801 0.35 14.1588 0.875L5.91522 7.875C5.1939 8.4875 4.88477 9.275 4.88477 10.0625V25.9875C4.88477 27.0375 5.91522 27.9125 7.15175 27.9125H26.6273C27.8638 27.9125 28.8942 27.0375 28.8942 25.9875V1.925C28.6882 0.875 27.7607 0 26.5242 0Z" fill="#562583"/>
<path d="M26.5242 27.3H6.9457C5.70916 27.3 4.67871 26.425 4.67871 25.375V25.9875C4.67871 27.0375 5.70916 27.9125 6.9457 27.9125H26.4212C27.6577 27.9125 28.6882 27.0375 28.6882 25.9875V25.375C28.6882 26.5125 27.7608 27.3 26.5242 27.3ZM12.9223 8.8375C14.1588 8.8375 15.1893 7.9625 15.1893 6.9125V0.262497C14.7771 0.437497 14.468 0.612497 14.1588 0.874997L5.91525 7.875C5.60612 8.1375 5.40003 8.4875 5.19394 8.75H12.9223V8.8375Z" fill="#13C9E7"/>
<path d="M24.8754 11.6375H8.59429C8.3882 11.6375 8.28516 11.725 8.28516 11.9V12.8625C8.28516 13.0375 8.3882 13.125 8.59429 13.125H24.9784C25.1845 13.125 25.2876 13.0375 25.2876 12.8625V11.9C25.1845 11.725 25.0815 11.6375 24.8754 11.6375ZM24.8754 14.7875H8.59429C8.3882 14.7875 8.28516 14.875 8.28516 15.05V16.0125C8.28516 16.1875 8.3882 16.275 8.59429 16.275H24.9784C25.1845 16.275 25.2876 16.1875 25.2876 16.0125V15.05C25.1845 14.9625 25.0815 14.7875 24.8754 14.7875ZM24.8754 17.9375H8.59429C8.3882 17.9375 8.28516 18.025 8.28516 18.2V19.1625C8.28516 19.3375 8.3882 19.425 8.59429 19.425H24.9784C25.1845 19.425 25.2876 19.3375 25.2876 19.1625V18.2C25.1845 18.1125 25.0815 17.9375 24.8754 17.9375ZM24.8754 21.175H8.59429C8.3882 21.175 8.28516 21.2625 8.28516 21.4375V22.4C8.28516 22.575 8.3882 22.6625 8.59429 22.6625H24.9784C25.1845 22.6625 25.2876 22.575 25.2876 22.4V21.4375C25.1845 21.2625 25.0815 21.175 24.8754 21.175Z" fill="white"/>
<path d="M24.8754 11.6375H23.7419C23.5358 11.6375 23.4328 11.725 23.4328 11.9V22.3125C23.4328 22.4875 23.5358 22.575 23.7419 22.575H24.8754C25.0815 22.575 25.1845 22.4875 25.1845 22.3125V11.9C25.1845 11.725 25.0815 11.6375 24.8754 11.6375ZM19.9292 11.6375H18.7957C18.5897 11.6375 18.4866 11.725 18.4866 11.9V22.3125C18.4866 22.4875 18.5897 22.575 18.7957 22.575H19.9292C20.1353 22.575 20.2384 22.4875 20.2384 22.3125V11.9C20.2384 11.725 20.1353 11.6375 19.9292 11.6375ZM14.6739 11.6375H13.5405C13.3344 11.6375 13.2313 11.725 13.2313 11.9V22.3125C13.2313 22.4875 13.3344 22.575 13.5405 22.575H14.6739C14.88 22.575 14.9831 22.4875 14.9831 22.3125V11.9C14.9831 11.725 14.777 11.6375 14.6739 11.6375ZM9.72779 11.6375H8.59429C8.3882 11.6375 8.28516 11.725 8.28516 11.9V22.3125C8.28516 22.4875 8.3882 22.575 8.59429 22.575H9.72779C9.93388 22.575 10.0369 22.4875 10.0369 22.3125V11.9C10.0369 11.725 9.83083 11.6375 9.72779 11.6375Z" fill="white"/>
</svg>
