<svg width="21" height="21" viewBox="0 0 21 21" fill="none" xmlns="http://www.w3.org/2000/svg">
<path d="M18.792 5.125V7.19208C18.792 8.54166 17.9378 9.39583 16.5882 9.39583H13.667V3.42521C13.667 2.47708 14.4443 1.70833 15.3924 1.70833C16.3235 1.71687 17.1776 2.09271 17.7926 2.70771C18.4076 3.33125 18.792 4.18542 18.792 5.125Z" stroke="white" stroke-width="1.5" stroke-miterlimit="10" stroke-linecap="round" stroke-linejoin="round"/>
<path d="M1.70801 5.97917V17.9375C1.70801 18.6465 2.51092 19.0479 3.07467 18.6208L4.5353 17.5275C4.87697 17.2712 5.3553 17.3054 5.6628 17.6129L7.08072 19.0394C7.41384 19.3725 7.96051 19.3725 8.29363 19.0394L9.72863 17.6044C10.0276 17.3054 10.5059 17.2712 10.839 17.5275L12.2997 18.6208C12.8634 19.0394 13.6663 18.6379 13.6663 17.9375V3.41667C13.6663 2.47708 14.4351 1.70833 15.3747 1.70833H5.97884H5.12467C2.56217 1.70833 1.70801 3.23729 1.70801 5.125V5.97917Z" stroke="white" stroke-width="1.5" stroke-miterlimit="10" stroke-linecap="round" stroke-linejoin="round"/>
<path d="M7.6875 11.1127H10.25" stroke="white" stroke-width="1.5" stroke-linecap="round" stroke-linejoin="round"/>
<path d="M7.6875 7.69604H10.25" stroke="white" stroke-width="1.5" stroke-linecap="round" stroke-linejoin="round"/>
<path d="M5.12109 11.1042H5.12877" stroke="white" stroke-width="2" stroke-linecap="round" stroke-linejoin="round"/>
<path d="M5.12109 7.6875H5.12877" stroke="white" stroke-width="2" stroke-linecap="round" stroke-linejoin="round"/>
</svg>
