<svg width="24" height="24" viewBox="0 0 24 24" fill="none" xmlns="http://www.w3.org/2000/svg">
<mask id="mask0_7288_72560" style="mask-type:alpha" maskUnits="userSpaceOnUse" x="0" y="0" width="24" height="24">
<rect width="24" height="24" fill="#D9D9D9"/>
</mask>
<g mask="url(#mask0_7288_72560)">
<path d="M16.9392 14.3108C16.3162 14.3108 15.7854 14.0916 15.3469 13.6531C14.9084 13.2146 14.6892 12.6838 14.6892 12.0608C14.6892 11.4376 14.9084 10.9068 15.3469 10.4683C15.7854 10.03 16.3162 9.81081 16.9392 9.81081C17.5624 9.81081 18.0931 10.03 18.5314 10.4683C18.9699 10.9068 19.1892 11.4376 19.1892 12.0608C19.1892 12.6838 18.9699 13.2146 18.5314 13.6531C18.0931 14.0916 17.5624 14.3108 16.9392 14.3108ZM12.1892 18.4068V18.1608C12.1892 17.8056 12.28 17.4796 12.4617 17.1826C12.6434 16.8856 12.9013 16.6719 13.2354 16.5416C13.8226 16.2979 14.4274 16.1151 15.0499 15.9933C15.6723 15.8716 16.302 15.8108 16.9392 15.8108C17.5764 15.8108 18.2062 15.8716 18.8287 15.9933C19.451 16.1151 20.0559 16.2979 20.6432 16.5416C20.9774 16.6719 21.2352 16.8856 21.4167 17.1826C21.5984 17.4796 21.6892 17.8056 21.6892 18.1608V18.4068C21.6892 18.663 21.6026 18.8776 21.4294 19.0508C21.2561 19.2241 21.0414 19.3108 20.7854 19.3108H13.0932C12.837 19.3108 12.6224 19.2241 12.4492 19.0508C12.2759 18.8776 12.1892 18.663 12.1892 18.4068ZM9.80469 11.6953C8.84219 11.6953 8.01819 11.3526 7.33269 10.6673C6.64735 9.98181 6.30469 9.15781 6.30469 8.19531C6.30469 7.23281 6.64735 6.4089 7.33269 5.72356C8.01819 5.03806 8.84219 4.69531 9.80469 4.69531C10.7672 4.69531 11.5911 5.03806 12.2764 5.72356C12.9619 6.4089 13.3047 7.23281 13.3047 8.19531C13.3047 9.15781 12.9619 9.98181 12.2764 10.6673C11.5911 11.3526 10.7672 11.6953 9.80469 11.6953ZM2.30469 17.0866C2.30469 16.5872 2.4351 16.1283 2.69594 15.7098C2.95694 15.2911 3.31494 14.9761 3.76994 14.7646C4.71227 14.2902 5.69035 13.9293 6.70419 13.6818C7.71802 13.4345 8.75152 13.3108 9.80469 13.3108C10.2982 13.3108 10.7918 13.3464 11.2854 13.4176C11.7789 13.4887 12.2725 13.5749 12.7662 13.6761C12.5534 13.8921 12.3405 14.1081 12.1277 14.3243L11.4892 14.9723C11.2085 14.905 10.9278 14.8612 10.6469 14.8411C10.3661 14.8209 10.0854 14.8108 9.80469 14.8108C8.87002 14.8108 7.95144 14.9178 7.04894 15.1318C6.14627 15.346 5.28277 15.6697 4.45844 16.1031C4.2661 16.2056 4.10902 16.3398 3.98719 16.5058C3.86552 16.672 3.80469 16.8659 3.80469 17.0876V17.8108H9.80469V18.3916C9.80469 18.5859 9.83877 18.7615 9.90694 18.9183C9.9751 19.0753 10.0705 19.2061 10.1932 19.3108H3.82394C3.4021 19.3108 3.04344 19.1631 2.74794 18.8676C2.45244 18.5719 2.30469 18.2132 2.30469 17.7916V17.0866ZM9.80469 10.1953C10.3547 10.1953 10.8255 9.99948 11.2172 9.60781C11.6089 9.21615 11.8047 8.74531 11.8047 8.19531C11.8047 7.64531 11.6089 7.17448 11.2172 6.78281C10.8255 6.39115 10.3547 6.19531 9.80469 6.19531C9.25469 6.19531 8.78385 6.39115 8.39219 6.78281C8.00052 7.17448 7.80469 7.64531 7.80469 8.19531C7.80469 8.74531 8.00052 9.21615 8.39219 9.60781C8.78385 9.99948 9.25469 10.1953 9.80469 10.1953Z" fill="white"/>
</g>
</svg>
