<svg width="24" height="24" viewBox="0 0 24 24" fill="none" xmlns="http://www.w3.org/2000/svg">
<circle cx="12" cy="12" r="12" fill="#F4511E"/>
<path d="M17.25 8.48796C15.3075 8.29546 13.3533 8.19629 11.405 8.19629C10.25 8.19629 9.095 8.25462 7.94 8.37129L6.75 8.48796" stroke="white" stroke-linecap="round" stroke-linejoin="round"/>
<path d="M9.95801 7.89949L10.0863 7.13533C10.1797 6.58116 10.2497 6.16699 11.2355 6.16699H12.7638C13.7497 6.16699 13.8255 6.60449 13.913 7.14116L14.0413 7.89949" stroke="white" stroke-linecap="round" stroke-linejoin="round"/>
<path d="M15.9956 10.332L15.6164 16.2062C15.5522 17.122 15.4997 17.8337 13.8722 17.8337H10.1272C8.49974 17.8337 8.44724 17.122 8.38307 16.2062L8.00391 10.332" stroke="white" stroke-linecap="round" stroke-linejoin="round"/>
<path d="M11.0254 14.625H12.9679" stroke="white" stroke-linecap="round" stroke-linejoin="round"/>
<path d="M10.542 12.292H13.4587" stroke="white" stroke-linecap="round" stroke-linejoin="round"/>
</svg>
