<svg width="62" height="78" viewBox="0 0 62 78" fill="none" xmlns="http://www.w3.org/2000/svg">
<g clip-path="url(#clip0_258_31804)">
<path d="M62 78H0V0H43.4L62 18.72V78Z" fill="url(#paint0_linear_258_31804)"/>
<path d="M43.4 0H0V24.96H62V18.72L43.4 0Z" fill="url(#paint1_linear_258_31804)"/>
<path opacity="0.3" d="M43.4004 18.72H62.0004L43.4004 0V18.72Z" fill="white"/>
<path d="M4.89844 8.34599C5.71994 8.22119 6.69644 8.12759 7.76594 8.12759C9.70344 8.12759 11.0829 8.57999 11.9974 9.43799C12.9274 10.296 13.4699 11.5128 13.4699 13.2132C13.4699 14.9136 12.9429 16.3332 11.9664 17.3004C10.9899 18.2832 9.37794 18.8136 7.34744 18.8136C6.38644 18.8136 5.58044 18.7668 4.89844 18.6888V8.34599ZM6.24694 17.6436C6.58794 17.706 7.08394 17.7216 7.61094 17.7216C10.4939 17.7216 12.0594 16.0992 12.0594 13.26C12.0749 10.7796 10.6799 9.20399 7.82794 9.20399C7.13044 9.20399 6.60344 9.26639 6.24694 9.34439V17.6436Z" fill="white"/>
<path d="M24.7687 13.3536C24.7687 16.9728 22.5832 18.8916 19.9172 18.8916C17.2512 18.8916 15.2207 16.7388 15.2207 13.5564C15.2207 10.218 17.2822 8.034 20.0722 8.034C22.8622 8.034 24.7687 10.2336 24.7687 13.3536ZM16.6622 13.5252C16.6622 15.7716 17.8712 17.784 19.9947 17.784C22.1182 17.784 23.3427 15.8028 23.3427 13.416C23.3427 11.3256 22.2577 9.1416 20.0102 9.1416C17.7627 9.1416 16.6622 11.2164 16.6622 13.5252Z" fill="white"/>
<path d="M34.442 18.3768C33.946 18.6264 32.954 18.876 31.683 18.876C28.738 18.876 26.5215 17.004 26.5215 13.5564C26.5215 10.1088 28.738 8.034 31.9775 8.034C33.2795 8.034 34.101 8.3148 34.4575 8.502L34.132 9.6096C33.6205 9.36 32.892 9.1728 32.024 9.1728C29.575 9.1728 27.9475 10.7484 27.9475 13.5096C27.9475 16.0836 29.42 17.7372 31.962 17.7372C32.7835 17.7372 33.6205 17.5656 34.163 17.3004L34.442 18.3768Z" fill="white"/>
<g style="mix-blend-mode:multiply" opacity="0.15">
<path d="M44.0541 64.2158C43.9642 64.5809 43.8371 64.8742 43.679 65.0957C43.5209 65.3172 43.2822 65.4857 42.9629 65.598C42.6436 65.7103 42.2375 65.7883 41.7353 65.8258C41.2362 65.8632 40.6007 65.8819 39.8288 65.8819C38.967 65.8819 38.2726 65.8632 37.7518 65.8258C37.231 65.7883 36.8156 65.7103 36.5149 65.598C36.2111 65.4826 35.9941 65.3172 35.8577 65.0957C35.7213 64.8742 35.6159 64.5809 35.5384 64.2158L30.8388 45.4771H30.7923L26.3407 64.2158C26.2632 64.5653 26.1578 64.8523 26.0214 65.0738C25.885 65.2954 25.668 65.467 25.3735 65.5886C25.079 65.7103 24.676 65.7914 24.1707 65.8289C23.6623 65.8663 22.9927 65.885 22.1619 65.885C21.2846 65.885 20.584 65.8663 20.0632 65.8289C19.5424 65.7914 19.127 65.7134 18.8263 65.6011C18.5225 65.4857 18.3055 65.3203 18.1691 65.0988C18.0327 64.8773 17.918 64.584 17.8281 64.219L11.1538 38.4197C11.0174 37.8706 10.943 37.44 10.9275 37.128C10.912 36.816 10.9988 36.5758 11.1879 36.4073C11.377 36.2388 11.687 36.1358 12.1179 36.0984C12.5488 36.061 13.1502 36.0422 13.9221 36.0422C14.632 36.0422 15.1962 36.0547 15.6147 36.0766C16.0301 36.0984 16.3432 36.1546 16.5571 36.2357C16.7679 36.3199 16.9136 36.4416 16.988 36.6007C17.0624 36.7598 17.1244 36.9845 17.1709 37.2746L22.3262 59.9196H22.3479L27.7078 37.4338C27.7667 37.1436 27.8473 36.9096 27.9465 36.7255C28.0457 36.5414 28.21 36.401 28.4456 36.3043C28.6812 36.2045 29.0005 36.1358 29.4097 36.0984C29.8189 36.061 30.3645 36.0422 31.0434 36.0422C31.7688 36.0422 32.3485 36.0578 32.7794 36.089C33.2103 36.1202 33.542 36.1858 33.7776 36.2825C34.0132 36.3823 34.1837 36.5227 34.2891 36.7037C34.3945 36.8878 34.4782 37.1311 34.5402 37.4338L40.0799 59.9196H40.1264L45.2817 37.3433C45.3282 37.0999 45.3871 36.8909 45.4646 36.7162C45.539 36.5414 45.6847 36.4042 45.8955 36.3043C46.1063 36.2045 46.4101 36.1358 46.8038 36.0984C47.1975 36.061 47.7493 36.0422 48.4623 36.0422C49.1288 36.0422 49.6465 36.061 50.0185 36.0984C50.3905 36.1358 50.6571 36.2388 50.8245 36.4073C50.9919 36.5758 51.0632 36.8222 51.0415 37.1498C51.0198 37.4774 50.9392 37.9236 50.8028 38.4852L44.0603 64.2158H44.0541Z" fill="#231F20"/>
</g>
</g>
<defs>
<linearGradient id="paint0_linear_258_31804" x1="31" y1="78" x2="31" y2="0" gradientUnits="userSpaceOnUse">
<stop stop-color="#DCDDDE"/>
<stop offset="0.11" stop-color="#E0E1E2"/>
<stop offset="0.56" stop-color="#ECEDEE"/>
<stop offset="1" stop-color="#F1F2F2"/>
</linearGradient>
<linearGradient id="paint1_linear_258_31804" x1="31" y1="24.96" x2="31" y2="0" gradientUnits="userSpaceOnUse">
<stop stop-color="#00AEEF"/>
<stop offset="1" stop-color="#6DCFF6"/>
</linearGradient>
<clipPath id="clip0_258_31804">
<rect width="62" height="78" fill="white"/>
</clipPath>
</defs>
</svg>
