<svg width="16" height="16" viewBox="0 0 16 16" fill="none" xmlns="http://www.w3.org/2000/svg">
<path fill-rule="evenodd" clip-rule="evenodd" d="M14.75 8C14.75 11.7279 11.7279 14.75 8 14.75C4.27208 14.75 1.25 11.7279 1.25 8C1.25 4.27208 4.27208 1.25 8 1.25C11.7279 1.25 14.75 4.27208 14.75 8ZM16 8C16 12.4183 12.4183 16 8 16C3.58172 16 0 12.4183 0 8C0 3.58172 3.58172 0 8 0C12.4183 0 16 3.58172 16 8ZM5.53033 8.53033L7.25 6.81066V12H8.75V6.81066L10.4697 8.53033L11.5303 7.46967L8.53033 4.46967C8.23744 4.17678 7.76256 4.17678 7.46967 4.46967L4.46967 7.46967L5.53033 8.53033Z" fill="#7E858E"/>
</svg>
