<svg width="426" height="120" viewBox="0 0 426 120" fill="none" xmlns="http://www.w3.org/2000/svg">
<mask id="mask0_6451_2842" style="mask-type:luminance" maskUnits="userSpaceOnUse" x="0" y="0" width="426" height="120">
<path d="M425.2 0H0V119.93H425.2V0Z" fill="white"/>
</mask>
<g mask="url(#mask0_6451_2842)">
<path d="M78.47 114.34C78.93 114.61 79.29 114.97 79.56 115.43C79.83 115.88 79.96 116.39 79.96 116.94C79.96 117.49 79.83 118 79.56 118.45C79.29 118.91 78.93 119.27 78.47 119.54C78.01 119.8 77.51 119.94 76.96 119.94C76.41 119.94 75.91 119.81 75.45 119.54C74.99 119.27 74.63 118.91 74.36 118.45C74.09 118 73.96 117.49 73.96 116.94C73.96 116.39 74.09 115.89 74.36 115.43C74.63 114.97 74.99 114.61 75.45 114.34C75.91 114.07 76.41 113.93 76.96 113.93C77.51 113.93 78.02 114.06 78.47 114.34ZM78.28 119.23C78.68 118.99 78.99 118.67 79.22 118.27C79.45 117.87 79.56 117.43 79.56 116.94C79.56 116.45 79.44 116.01 79.22 115.61C78.99 115.21 78.67 114.89 78.28 114.65C77.88 114.41 77.44 114.3 76.95 114.3C76.46 114.3 76.02 114.42 75.62 114.65C75.22 114.89 74.91 115.21 74.68 115.61C74.45 116.01 74.34 116.45 74.34 116.94C74.34 117.43 74.45 117.87 74.68 118.27C74.91 118.67 75.22 118.99 75.62 119.23C76.02 119.47 76.46 119.59 76.95 119.59C77.44 119.59 77.88 119.47 78.28 119.23ZM78.01 116.96C77.84 117.12 77.6 117.21 77.29 117.22L78.33 118.52H77.89L76.88 117.23H76.22V118.52H75.86V115.31H77.15C77.51 115.31 77.78 115.4 77.97 115.57C78.16 115.74 78.25 115.97 78.25 116.28C78.25 116.59 78.17 116.8 78 116.97M77.89 116.28C77.89 115.86 77.64 115.65 77.13 115.65H76.22V116.92H77.13C77.63 116.92 77.89 116.71 77.89 116.28Z" fill="#BBBBBB"/>
<path d="M19.99 56.9399L0 76.9099V89.9999L19.99 70.0299V56.9399Z" fill="white" fill-opacity="0.5"/>
<path d="M19.99 74.02L0 93.99V108.07L19.99 88.11V74.02Z" fill="white" fill-opacity="0.5"/>
<path d="M19.99 39.86L0 59.83V71.92L19.99 51.95V39.86Z" fill="white" fill-opacity="0.5"/>
<path d="M19.99 99.98V91.1L0 111.07V119.93H6.23L26.2 99.98H19.99Z" fill="white" fill-opacity="0.5"/>
<path d="M25.3198 119.93H39.9798L59.9598 99.98H45.2898L25.3198 119.93Z" fill="white" fill-opacity="0.5"/>
<path d="M44.2902 99.98H28.1902L8.22021 119.93H24.3202L44.2902 99.98Z" fill="white" fill-opacity="0.5"/>
<path d="M19.99 33.88V19.99L0 39.94V53.85L19.99 33.88Z" fill="white" fill-opacity="0.5"/>
<path d="M59.9602 19.95V99.94L79.9502 79.99V0H39.9802L19.9902 19.95H59.9602Z" fill="white"/>
<path d="M141.21 10.9H119.93V109.02H176.2V91.69H141.21V10.9Z" fill="white"/>
<path d="M263.07 25.06C253.74 34.5 249.07 46.81 249.07 61.98C249.07 76.23 253.22 87.63 261.52 96.19C269.83 104.75 281.22 109.03 295.72 109.03C306.83 109.03 315.84 107.35 322.74 104V84.48C315.84 88.54 308.24 90.57 299.94 90.57C291.64 90.57 284.33 87.84 279.18 82.4C274.04 76.95 271.47 69.64 271.47 60.47C271.47 51.3 274.19 43.31 279.64 37.71C285.09 32.11 292.25 29.31 301.12 29.31C309.2 29.31 316.41 31.21 322.73 35V14.41C316.4 12.07 308.63 10.9 299.4 10.9C284.51 10.9 272.4 15.62 263.06 25.06" fill="white"/>
<path d="M228.81 10.9L209.09 52.01L189.37 10.9H166.8L198.36 73.63V109.02H198.53H219.65H219.82V73.63L251.39 10.9H228.81Z" fill="white"/>
<path d="M402.14 109.02H425.2L389.63 10.9H367.54L331.97 109.02H355.03L362.25 85.66H394.93L402.15 109.02H402.14ZM367.31 69.25L378.58 32.74L389.85 69.25H367.3H367.31Z" fill="white"/>
</g>
</svg>
