<svg width="202" height="190" viewBox="0 0 202 190" fill="none" xmlns="http://www.w3.org/2000/svg">
<path d="M111.964 169C156.502 169 192.609 132.892 192.609 88.1952C192.609 43.4982 156.343 7.39062 111.964 7.39062C67.4259 7.39062 31.3184 43.4982 31.3184 88.1952C31.3184 132.892 67.4259 169 111.964 169Z" fill="#EAEEF9"/>
<path d="M187.36 35.2269C190.961 35.2269 193.881 32.307 193.881 28.7052C193.881 25.1034 190.961 22.1836 187.36 22.1836C183.758 22.1836 180.838 25.1034 180.838 28.7052C180.838 32.307 183.758 35.2269 187.36 35.2269Z" fill="#EAEEF9"/>
<path d="M196.905 9.77674C199.365 9.77674 201.359 7.7827 201.359 5.32294C201.359 2.86317 199.365 0.869141 196.905 0.869141C194.445 0.869141 192.451 2.86317 192.451 5.32294C192.451 7.7827 194.445 9.77674 196.905 9.77674Z" fill="#EAEEF9"/>
<path d="M35.613 35.0678C38.0727 35.0678 40.0668 33.0737 40.0668 30.614C40.0668 28.1542 38.0727 26.1602 35.613 26.1602C33.1532 26.1602 31.1592 28.1542 31.1592 30.614C31.1592 33.0737 33.1532 35.0678 35.613 35.0678Z" fill="#EAEEF9"/>
<path d="M8.41294 120.963C12.9811 120.963 16.6843 117.259 16.6843 112.691C16.6843 108.123 12.9811 104.42 8.41294 104.42C3.84481 104.42 0.141602 108.123 0.141602 112.691C0.141602 117.259 3.84481 120.963 8.41294 120.963Z" fill="#EAEEF9"/>
<g filter="url(#filter0_d_41_13635)">
<path d="M166.842 47.7936L168.115 150.231C168.115 153.73 165.251 156.434 161.752 156.434H61.8596C58.3602 156.434 55.4971 153.571 55.4971 150.231V18.5258C55.4971 15.0264 58.3602 12.3223 61.8596 12.3223H134.234L166.842 47.7936Z" fill="url(#paint0_linear_41_13635)"/>
</g>
<path d="M104.169 135.913H100.511C99.7154 135.913 99.0791 135.118 99.0791 134.164C99.0791 133.209 99.7154 132.414 100.511 132.414H104.169C104.964 132.414 105.601 133.209 105.601 134.164C105.601 135.277 104.964 135.913 104.169 135.913Z" fill="#CED7E2"/>
<path d="M93.0352 135.913H71.7206C70.9253 135.913 70.2891 135.118 70.2891 134.164C70.2891 133.209 70.9253 132.414 71.7206 132.414H93.0352C93.8306 132.414 94.4668 133.209 94.4668 134.164C94.4668 135.277 93.8306 135.913 93.0352 135.913Z" fill="#D5DDEA"/>
<path d="M120.235 33.7958H72.3569C71.2435 33.7958 70.2891 32.8414 70.2891 31.728C70.2891 30.6145 71.2435 29.6602 72.3569 29.6602H120.235C121.349 29.6602 122.303 30.6145 122.303 31.728C122.303 32.8414 121.349 33.7958 120.235 33.7958Z" fill="#D5DDEA"/>
<path d="M90.8083 45.247H72.3569C71.2435 45.247 70.2891 44.2926 70.2891 43.1792C70.2891 42.0657 71.2435 41.1113 72.3569 41.1113H90.6493C91.7627 41.1113 92.7171 42.0657 92.7171 43.1792C92.7171 44.2926 91.7627 45.247 90.8083 45.247Z" fill="#D5DDEA"/>
<path d="M134.233 12.3223V40.6357C134.233 44.6123 137.733 47.7936 141.709 47.7936H166.842" fill="#D5DDEA"/>
<path d="M174.477 158.82C172.887 158.82 171.296 158.184 170.024 156.752L143.46 130.188L142.506 130.825C133.916 137.187 123.895 140.528 113.715 140.528C101.467 140.528 89.219 135.597 80.1523 127.007C70.6085 117.941 65.3594 105.693 65.3594 92.3312C65.3594 65.7675 86.9921 44.1348 113.556 44.1348C131.689 44.1348 147.596 53.6786 156.185 69.9032C164.615 85.9687 163.502 104.738 153.163 119.849L152.527 120.804L179.249 147.526C181.953 150.231 181.317 152.935 180.84 154.366C179.567 156.911 177.022 158.82 174.477 158.82ZM113.556 57.3371C94.15 57.3371 78.5617 73.0844 78.5617 92.3312C78.5617 114.282 96.536 127.484 114.033 127.484C124.69 127.484 134.393 122.712 141.233 114.123C149.663 103.625 151.095 89.4681 145.21 77.2201C139.165 64.9722 127.076 57.3371 113.556 57.3371Z" fill="#989FB0"/>
<path d="M98.4435 98.057C100.511 98.057 102.261 96.3073 102.261 94.2394C102.261 92.1716 100.511 90.4219 98.4435 90.4219C96.3757 90.4219 94.626 92.1716 94.626 94.2394C94.626 96.3073 96.3757 98.057 98.4435 98.057Z" fill="#989FB0"/>
<path d="M127.711 98.057C129.779 98.057 131.529 96.3073 131.529 94.2394C131.529 92.1716 129.779 90.4219 127.711 90.4219C125.643 90.4219 123.894 92.1716 123.894 94.2394C123.894 96.4663 125.643 98.057 127.711 98.057Z" fill="#989FB0"/>
<path d="M98.2951 81.6083L89.8975 86.1426L91.031 88.242L99.4287 83.7077L98.2951 81.6083Z" fill="#989FB0"/>
<path d="M127.192 81.5488L126.059 83.6484L134.457 88.1817L135.591 86.0821L127.192 81.5488Z" fill="#989FB0"/>
<path d="M113.077 106.964C115.537 106.964 117.531 105.468 117.531 103.624C117.531 101.779 115.537 100.283 113.077 100.283C110.617 100.283 108.623 101.779 108.623 103.624C108.623 105.468 110.617 106.964 113.077 106.964Z" fill="#989FB0"/>
<defs>
<filter id="filter0_d_41_13635" x="33.4971" y="1.32227" width="156.617" height="188.111" filterUnits="userSpaceOnUse" color-interpolation-filters="sRGB">
<feFlood flood-opacity="0" result="BackgroundImageFix"/>
<feColorMatrix in="SourceAlpha" type="matrix" values="0 0 0 0 0 0 0 0 0 0 0 0 0 0 0 0 0 0 127 0" result="hardAlpha"/>
<feOffset dy="11"/>
<feGaussianBlur stdDeviation="11"/>
<feColorMatrix type="matrix" values="0 0 0 0 0.397708 0 0 0 0 0.47749 0 0 0 0 0.575 0 0 0 0.27 0"/>
<feBlend mode="normal" in2="BackgroundImageFix" result="effect1_dropShadow_41_13635"/>
<feBlend mode="normal" in="SourceGraphic" in2="effect1_dropShadow_41_13635" result="shape"/>
</filter>
<linearGradient id="paint0_linear_41_13635" x1="111.769" y1="8.98881" x2="111.769" y2="157.988" gradientUnits="userSpaceOnUse">
<stop stop-color="#FDFEFF"/>
<stop offset="0.9964" stop-color="#ECF0F5"/>
</linearGradient>
</defs>
</svg>
