<svg width="62" height="77" viewBox="0 0 62 77" fill="none" xmlns="http://www.w3.org/2000/svg">
<g clip-path="url(#clip0_258_31818)">
<path d="M62 77H0V0H43.4L62 18.48V77Z" fill="url(#paint0_linear_258_31818)"/>
<path d="M43.4 0H0V24.64H62V18.48L43.4 0Z" fill="url(#paint1_linear_258_31818)"/>
<path opacity="0.3" d="M43.4004 18.48H62.0004L43.4004 0V18.48Z" fill="white"/>
<path d="M4.89844 8.22361C5.54944 8.11581 6.40194 8.02341 7.48694 8.02341C8.81994 8.02341 9.79644 8.33141 10.4164 8.88581C10.9899 9.37861 11.3309 10.1332 11.3309 11.0572C11.3309 11.9812 11.0519 12.7358 10.5249 13.2748C9.81194 14.0294 8.64944 14.4144 7.33194 14.4144C6.92894 14.4144 6.55694 14.399 6.24694 14.322V18.48H4.89844V8.22361ZM6.24694 13.2286C6.54144 13.3056 6.91344 13.3364 7.36294 13.3364C8.99044 13.3364 9.98244 12.551 9.98244 11.1188C9.98244 9.68661 9.00594 9.08601 7.51794 9.08601C6.92894 9.08601 6.47944 9.13221 6.24694 9.19381V13.2286Z" fill="white"/>
<path d="M13.7637 8.23901C14.5852 8.11581 15.5617 8.02341 16.6312 8.02341C18.5687 8.02341 19.9482 8.47001 20.8627 9.31701C21.7927 10.164 22.3352 11.3652 22.3352 13.0438C22.3352 14.7224 21.8082 16.1238 20.8317 17.0786C19.8552 18.0488 18.2432 18.5724 16.2127 18.5724C15.2517 18.5724 14.4457 18.5262 13.7637 18.4492V8.23901ZM15.1122 17.4174C15.4532 17.479 15.9492 17.4944 16.4762 17.4944C19.3592 17.4944 20.9247 15.8928 20.9247 13.09C20.9402 10.6414 19.5452 9.08601 16.6932 9.08601C15.9957 9.08601 15.4687 9.14761 15.1122 9.22461V17.4174Z" fill="white"/>
<path d="M24.7051 8.1004H30.3316V9.2246H26.0536V12.6742H30.0061V13.783H26.0536V18.48H24.7051V8.1004Z" fill="white"/>
<g style="mix-blend-mode:multiply" opacity="0.15">
<path fill-rule="evenodd" clip-rule="evenodd" d="M50.1149 58.7818C51.3549 56.1576 46.0632 55.2583 38.8619 56.0868C37.5971 55.3784 36.3664 54.5776 35.2566 53.6967C32.4852 51.436 30.4454 47.6476 29.1775 43.8469C29.7541 40.6652 29.7169 37.961 29.782 35.0381C29.5092 36.3686 29.3108 38.5955 28.5575 41.7617C27.5872 38.0626 27.3764 34.6253 27.9654 32.9067C28.0956 32.5279 28.4087 32.0874 28.5451 31.9889C29.0845 32.2568 29.7386 32.919 29.8874 34.3019C30.3772 31.7486 29.1186 31.8379 28.7683 31.8379L27.9747 31.8318C27.5376 31.8318 27.1439 32.1798 26.9548 32.8882C26.3069 35.2968 26.6169 39.6457 27.9654 44.0163C27.1253 46.9299 25.8295 50.4689 23.7308 54.6669C18.591 64.951 14.7129 70.2394 11.988 70.2671C11.7245 68.9643 14.4525 65.1112 18.2345 62.3053C11.957 65.6225 10.6333 69.414 11.2161 70.1223L12.1957 70.6213C14.0216 71.5484 17.1557 69.0936 22.0878 60.6206C26.7223 58.9604 32.8882 57.7407 38.2605 57.2048C43.5522 60.023 49.6313 60.9902 49.9382 59.1791C48.568 59.8321 44.631 58.9235 40.6537 57.0108C46.1035 56.6658 50.2203 57.1525 50.118 58.7787L50.1149 58.7818ZM22.1312 60.5466C22.9899 59.0682 23.9013 57.4143 24.8685 55.5601C26.8308 51.8025 27.9902 48.7533 28.6815 46.086C29.9401 49.3323 31.7908 52.4216 34.2708 54.5437C35.0427 55.2028 35.8952 55.8096 36.788 56.3671C32.1008 57.0878 26.8432 58.4799 22.1281 60.5466H22.1312Z" fill="#231F20"/>
</g>
</g>
<defs>
<linearGradient id="paint0_linear_258_31818" x1="31" y1="77" x2="31" y2="0" gradientUnits="userSpaceOnUse">
<stop stop-color="#DCDDDE"/>
<stop offset="0.11" stop-color="#E0E1E2"/>
<stop offset="0.56" stop-color="#ECEDEE"/>
<stop offset="1" stop-color="#F1F2F2"/>
</linearGradient>
<linearGradient id="paint1_linear_258_31818" x1="31" y1="24.64" x2="31" y2="0" gradientUnits="userSpaceOnUse">
<stop stop-color="#C4161C"/>
<stop offset="1" stop-color="#ED1C24"/>
</linearGradient>
<clipPath id="clip0_258_31818">
<rect width="62" height="77" fill="white"/>
</clipPath>
</defs>
</svg>
