<svg width="74" height="74" viewBox="0 0 74 74" fill="none" xmlns="http://www.w3.org/2000/svg">
<path d="M37 11.5625C38.1602 11.5697 39.3188 11.6508 40.4688 11.8053V8.67188C40.4657 8.21283 40.282 7.77344 39.9574 7.44884C39.6328 7.12423 39.1934 6.94053 38.7344 6.9375H35.2656C34.8066 6.94053 34.3672 7.12423 34.0426 7.44884C33.718 7.77344 33.5343 8.21283 33.5312 8.67188V11.8053C34.6812 11.6508 35.8398 11.5697 37 11.5625ZM55.0259 19.0088C55.9994 20 56.8925 21.0671 57.6969 22.2L58.4716 21.4369C58.6341 21.2756 58.7632 21.0838 58.8512 20.8725C58.9393 20.6611 58.9846 20.4344 58.9846 20.2055C58.9846 19.9765 58.9393 19.7498 58.8512 19.5385C58.7632 19.3271 58.6341 19.1353 58.4716 18.9741L56.0087 16.5228C55.6821 16.2008 55.2418 16.0203 54.7831 16.0203C54.3244 16.0203 53.8842 16.2008 53.5575 16.5228L52.9331 17.1472C53.6367 17.7065 54.3084 18.3048 54.945 18.9394L55.0259 19.0088ZM16.2684 22.2463C17.0688 21.1139 17.9622 20.0504 18.9394 19.0666C19.5736 18.4296 20.2455 17.8311 20.9513 17.2744L20.3269 16.65C20.0002 16.328 19.5599 16.1475 19.1013 16.1475C18.6426 16.1475 18.2023 16.328 17.8756 16.65L15.4937 19.0203C15.3312 19.1815 15.2022 19.3734 15.1141 19.5847C15.0261 19.7961 14.9807 20.0228 14.9807 20.2517C14.9807 20.4807 15.0261 20.7074 15.1141 20.9187C15.2022 21.1301 15.3312 21.3219 15.4937 21.4831L16.2684 22.2463ZM55.5 37C55.5 36.6933 55.6218 36.3992 55.8387 36.1824C56.0555 35.9656 56.3496 35.8438 56.6562 35.8438H60.125C59.9258 31.5611 58.5232 27.4214 56.0781 23.8997C55.494 23.0588 54.8527 22.2591 54.1587 21.5063L51.7422 23.9228C51.5256 24.1382 51.2325 24.259 50.927 24.259C50.6216 24.259 50.3285 24.1382 50.1119 23.9228C50.0035 23.8153 49.9175 23.6874 49.8588 23.5465C49.8001 23.4056 49.7699 23.2545 49.7699 23.1019C49.7699 22.9492 49.8001 22.7981 49.8588 22.6572C49.9175 22.5163 50.0035 22.3884 50.1119 22.2809L52.54 19.8528C52.1353 19.5059 51.7306 19.1591 51.3144 18.8353C48.1699 16.3502 44.4317 14.7282 40.4688 14.1294C39.6979 14.0292 38.9271 13.9598 38.1562 13.9212V17.39C38.1562 17.6967 38.0344 17.9908 37.8176 18.2076C37.6008 18.4244 37.3067 18.5463 37 18.5463C36.6933 18.5463 36.3992 18.4244 36.1824 18.2076C35.9656 17.9908 35.8438 17.6967 35.8438 17.39V13.875C35.0729 13.875 34.3021 13.9444 33.5312 14.0831C29.5724 14.6839 25.8383 16.3058 22.6972 18.7891C22.2809 19.1128 21.8763 19.4597 21.4716 19.8066L23.8997 22.2347C24.0081 22.3422 24.0941 22.4701 24.1528 22.611C24.2115 22.7519 24.2417 22.903 24.2417 23.0556C24.2417 23.2083 24.2115 23.3594 24.1528 23.5003C24.0941 23.6412 24.0081 23.7691 23.8997 23.8766C23.6831 24.0919 23.39 24.2128 23.0845 24.2128C22.7791 24.2128 22.486 24.0919 22.2694 23.8766L19.8412 21.5063C19.1473 22.2591 18.506 23.0588 17.9219 23.8997C15.4768 27.4214 14.0742 31.5611 13.875 35.8438H17.3438C17.6504 35.8438 17.9445 35.9656 18.1613 36.1824C18.3782 36.3992 18.5 36.6933 18.5 37C18.5 37.3067 18.3782 37.6008 18.1613 37.8176C17.9445 38.0344 17.6504 38.1562 17.3438 38.1562H13.875C14.0314 41.5528 14.9427 44.8718 16.5428 47.872C18.1429 50.8721 20.3914 53.4779 23.125 55.5V53.1875C23.125 52.5742 23.3686 51.986 23.8023 51.5523C24.236 51.1186 24.8242 50.875 25.4375 50.875H25.8306L25.5531 50.5975C25.3381 50.3827 25.1675 50.1277 25.0512 49.847C24.9348 49.5662 24.8749 49.2653 24.8749 48.9614C24.8749 48.6575 24.9348 48.3566 25.0512 48.0759C25.1675 47.7951 25.3381 47.5401 25.5531 47.3253L28.8369 44.0531C29.2686 43.6189 29.8549 43.3735 30.4672 43.3709C30.7723 43.3707 31.0745 43.4309 31.3563 43.5479C31.6381 43.665 31.8939 43.8367 32.1091 44.0531L32.3866 44.3306V43.9375C32.3866 43.3242 32.6302 42.736 33.0639 42.3023C33.4976 41.8686 34.0857 41.625 34.6991 41.625H39.3241C39.9374 41.625 40.5256 41.8686 40.9592 42.3023C41.3929 42.736 41.6366 43.3242 41.6366 43.9375V44.3306L41.9141 44.0531C42.3563 43.6352 42.9417 43.4023 43.5502 43.4023C44.1586 43.4023 44.744 43.6352 45.1863 44.0531L48.47 47.3253C48.685 47.5401 48.8556 47.7951 48.972 48.0759C49.0883 48.3566 49.1482 48.6575 49.1482 48.9614C49.1482 49.2653 49.0883 49.5662 48.972 49.847C48.8556 50.1277 48.685 50.3827 48.47 50.5975L48.1925 50.875H48.5625C49.1758 50.875 49.764 51.1186 50.1977 51.5523C50.6314 51.986 50.875 52.5742 50.875 53.1875V55.5C53.6086 53.4779 55.8571 50.8721 57.4572 47.872C59.0573 44.8718 59.9686 41.5528 60.125 38.1562H56.6562C56.3496 38.1562 56.0555 38.0344 55.8387 37.8176C55.6218 37.6008 55.5 37.3067 55.5 37ZM37 39.3125C36.5906 39.3162 36.1875 39.2111 35.832 39.0079C35.4765 38.8048 35.1813 38.5109 34.9766 38.1562C34.8805 38.1671 34.7835 38.1671 34.6875 38.1562H24.2812C23.9746 38.1562 23.6805 38.0344 23.4637 37.8176C23.2468 37.6008 23.125 37.3067 23.125 37C23.125 36.6933 23.2468 36.3992 23.4637 36.1824C23.6805 35.9656 23.9746 35.8438 24.2812 35.8438H34.6875C34.7858 35.8519 34.8827 35.8713 34.9766 35.9016C35.1856 35.5077 35.5077 35.1856 35.9016 34.9766C35.87 34.8831 35.8506 34.7859 35.8438 34.6875V21.9688C35.8438 21.6621 35.9656 21.368 36.1824 21.1512C36.3992 20.9343 36.6933 20.8125 37 20.8125C37.3067 20.8125 37.6008 20.9343 37.8176 21.1512C38.0344 21.368 38.1562 21.6621 38.1562 21.9688V34.6875C38.1683 34.7835 38.1683 34.8806 38.1562 34.9766C38.5109 35.1813 38.8048 35.4765 39.0079 35.832C39.2111 36.1875 39.3162 36.5906 39.3125 37C39.3125 37.6133 39.0689 38.2015 38.6352 38.6352C38.2015 39.0689 37.6133 39.3125 37 39.3125Z" fill="#562583"/>
<path d="M44.9781 50.8056L46.8281 48.9556L43.5559 45.6834L41.7059 47.5334C40.9568 47.098 40.1515 46.7673 39.3125 46.5506V43.9375H34.6875V46.5506C33.8485 46.7673 33.0432 47.098 32.2941 47.5334L30.4441 45.6834L27.1719 48.9556L29.0219 50.8056C28.5837 51.5493 28.2528 52.3512 28.0391 53.1875H25.4375V57.8125H28.0622C28.2759 58.6488 28.6068 59.4507 29.045 60.1944L27.195 62.0444L30.4672 65.3166L32.3172 63.4666C33.0663 63.902 33.8717 64.2327 34.7106 64.4494V67.0625H39.3356V64.4494C40.1746 64.2327 40.9799 63.902 41.7291 63.4666L43.5791 65.3166L46.8512 62.0444L45.0012 60.1944C45.4314 59.4494 45.7545 58.6476 45.9609 57.8125H48.5625V53.1875H45.9609C45.7472 52.3512 45.4164 51.5493 44.9781 50.8056ZM37 61.2812C35.8566 61.2812 34.7388 60.9422 33.7881 60.3069C32.8374 59.6717 32.0964 58.7688 31.6588 57.7124C31.2213 56.656 31.1068 55.4936 31.3298 54.3721C31.5529 53.2507 32.1035 52.2206 32.912 51.412C33.7206 50.6035 34.7507 50.0529 35.8721 49.8298C36.9936 49.6068 38.156 49.7213 39.2124 50.1588C40.2688 50.5964 41.1717 51.3374 41.8069 52.2881C42.4422 53.2388 42.7812 54.3566 42.7812 55.5C42.7812 57.0333 42.1722 58.5038 41.088 59.588C40.0038 60.6722 38.5333 61.2812 37 61.2812Z" fill="#9A5FA3"/>
</svg>
