<svg width="63" height="77" viewBox="0 0 63 77" fill="none" xmlns="http://www.w3.org/2000/svg">
<g clip-path="url(#clip0_258_31789)">
<path d="M63 77H0V0H44.1L63 18.48V77Z" fill="url(#paint0_linear_258_31789)"/>
<path d="M44.1 0H0V24.64H63V18.48L44.1 0Z" fill="url(#paint1_linear_258_31789)"/>
<path opacity="0.3" d="M44.0996 18.48H62.9996L44.0996 0V18.48Z" fill="white"/>
<path d="M10.7888 18.48L9.43433 16.1854C8.88308 15.3076 8.53658 14.7378 8.20583 14.1372H8.17433C7.87508 14.7378 7.57583 15.2922 7.02458 16.2008L5.74883 18.48H4.17383L7.41833 13.2286L4.29983 8.1004H5.89058L7.29233 10.5336C7.68608 11.2112 7.98533 11.7348 8.26883 12.2892H8.31608C8.61533 11.6732 8.88308 11.1958 9.27683 10.5336L10.7258 8.1004H12.3008L9.07208 13.1516L12.3796 18.48H10.7888Z" fill="white"/>
<path d="M14.5996 8.1004H15.9699V17.3558H20.5059V18.48H14.5996V8.1004Z" fill="white"/>
<path d="M22.4754 16.8476C23.0897 17.2172 23.9874 17.5252 24.9324 17.5252C26.3342 17.5252 27.1532 16.8014 27.1532 15.7542C27.1532 14.784 26.5862 14.2296 25.1529 13.6906C23.4204 13.09 22.3494 12.2122 22.3494 10.7492C22.3494 9.1322 23.7197 7.931 25.7829 7.931C26.8697 7.931 27.6572 8.1774 28.1297 8.4392L27.7517 9.5326C27.4052 9.3478 26.6964 9.0398 25.7357 9.0398C24.2867 9.0398 23.7354 9.8868 23.7354 10.5952C23.7354 11.5654 24.3812 12.0428 25.8459 12.5972C27.6414 13.2748 28.5549 14.1218 28.5549 15.6464C28.5549 17.248 27.3422 18.634 24.8379 18.634C23.8142 18.634 22.6959 18.3414 22.1289 17.9718L22.4754 16.8476Z" fill="white"/>
<g style="mix-blend-mode:multiply" opacity="0.15">
<path d="M41.6659 62.6719C41.9431 63.1985 42.1226 63.6205 42.2077 63.9347C42.2927 64.2519 42.2423 64.4921 42.0564 64.6554C41.8706 64.8217 41.5367 64.9264 41.0516 64.9726C40.5665 65.0188 39.8956 65.0404 39.0325 65.0404C38.308 65.0404 37.7409 65.025 37.3251 64.9942C36.9093 64.9634 36.5817 64.9141 36.3455 64.8463C36.1061 64.7786 35.9329 64.6862 35.8258 64.563C35.7187 64.4429 35.6241 64.2919 35.5485 64.1133L29.9416 53.5797L24.3598 64.1133C24.2684 64.295 24.1676 64.4429 24.0605 64.563C23.9534 64.6831 23.7802 64.7786 23.5408 64.8463C23.3014 64.9141 22.9706 64.9634 22.5485 64.9942C22.1264 65.025 21.5688 65.0404 20.8758 65.0404C20.0757 65.0404 19.4583 65.0188 19.0173 64.9726C18.5763 64.9264 18.2834 64.8217 18.129 64.6554C17.9747 64.4891 17.9432 64.2488 18.0377 63.9347C18.1322 63.6205 18.3212 63.1985 18.6141 62.6719L25.7678 49.9268L19.1244 37.9487C18.8472 37.4066 18.6582 36.9754 18.5606 36.652C18.4598 36.3286 18.4976 36.0884 18.6771 35.9313C18.8535 35.7742 19.1811 35.6757 19.6568 35.6387C20.1324 35.6017 20.8097 35.5833 21.6885 35.5833C22.4099 35.5833 22.9832 35.5987 23.4084 35.6295C23.8305 35.6603 24.1644 35.7095 24.4133 35.7773C24.659 35.8451 24.8323 35.9405 24.9331 36.0607C25.0339 36.1808 25.1283 36.3317 25.2228 36.5103L30.4613 46.1661L35.5611 36.5103C35.6525 36.3286 35.7502 36.1808 35.851 36.0607C35.9517 35.9405 36.1124 35.8451 36.3361 35.7773C36.5597 35.7095 36.8652 35.6603 37.259 35.6295C37.6528 35.5987 38.1945 35.5833 38.8844 35.5833C39.653 35.5833 40.2609 35.6017 40.7082 35.6387C41.1555 35.6757 41.4611 35.7773 41.6312 35.9436C41.8013 36.1099 41.8422 36.3502 41.7572 36.6643C41.6721 36.9816 41.4989 37.4097 41.2375 37.9487L34.5941 49.8591L41.6784 62.6719H41.6659Z" fill="#231F20"/>
</g>
</g>
<defs>
<linearGradient id="paint0_linear_258_31789" x1="31.5" y1="77" x2="31.5" y2="0" gradientUnits="userSpaceOnUse">
<stop stop-color="#DCDDDE"/>
<stop offset="0.11" stop-color="#E0E1E2"/>
<stop offset="0.56" stop-color="#ECEDEE"/>
<stop offset="1" stop-color="#F1F2F2"/>
</linearGradient>
<linearGradient id="paint1_linear_258_31789" x1="31.5" y1="24.64" x2="31.5" y2="0" gradientUnits="userSpaceOnUse">
<stop stop-color="#73A533"/>
<stop offset="1" stop-color="#ADC32B"/>
</linearGradient>
<clipPath id="clip0_258_31789">
<rect width="63" height="77" fill="white"/>
</clipPath>
</defs>
</svg>
